<svg width="23" height="33" viewBox="0 0 23 33" fill="none" xmlns="http://www.w3.org/2000/svg">
<path fill-rule="evenodd" clip-rule="evenodd" d="M14.375 3V3.43482C18.5315 4.72564 21.5625 8.74347 21.5625 13.5V24H23V27H0V24H1.4375V13.5C1.4375 8.74347 4.46848 4.72564 8.625 3.43482V3C8.625 1.34315 9.91218 0 11.5 0C13.0878 0 14.375 1.34315 14.375 3ZM4.3125 24H18.6875V13.5C18.6875 9.35786 15.4695 6 11.5 6C7.53045 6 4.3125 9.35786 4.3125 13.5V24ZM14.375 30V28.5H8.625V30C8.625 31.6569 9.91218 33 11.5 33C13.0878 33 14.375 31.6569 14.375 30Z" fill="black"/>
</svg>
