<svg width="22" height="22" viewBox="0 0 22 22" fill="none" xmlns="http://www.w3.org/2000/svg">
<path d="M6.33333 8.66667C5.689 8.66667 5.16667 9.189 5.16667 9.83333C5.16667 10.4777 5.689 11 6.33333 11H15.6667C16.311 11 16.8333 10.4777 16.8333 9.83333C16.8333 9.189 16.311 8.66667 15.6667 8.66667H6.33333Z" fill="black"/>
<path fill-rule="evenodd" clip-rule="evenodd" d="M4 0.5C2.067 0.5 0.5 2.067 0.5 4V18C0.5 19.933 2.067 21.5 4 21.5H18C19.933 21.5 21.5 19.933 21.5 18V4C21.5 2.067 19.933 0.5 18 0.5H4ZM2.83333 18V6.33333H19.1667V18C19.1667 18.6443 18.6443 19.1667 18 19.1667H4C3.35567 19.1667 2.83333 18.6443 2.83333 18Z" fill="black"/>
</svg>
