<svg width="18" height="18" viewBox="0 0 18 18" fill="none" xmlns="http://www.w3.org/2000/svg">
<path d="M9 0.6875C11.2046 0.6875 13.3189 1.56328 14.8778 3.12217C16.4367 4.68107 17.3125 6.79539 17.3125 9C17.3125 11.2046 16.4367 13.3189 14.8778 14.8778C13.3189 16.4367 11.2046 17.3125 9 17.3125C6.79539 17.3125 4.68107 16.4367 3.12217 14.8778C1.56328 13.3189 0.6875 11.2046 0.6875 9C0.6875 6.79539 1.56328 4.68107 3.12217 3.12217C4.68107 1.56328 6.79539 0.6875 9 0.6875ZM7.9645 10.6399L6.11794 8.79219C6.05174 8.72599 5.97315 8.67348 5.88666 8.63765C5.80016 8.60182 5.70746 8.58338 5.61384 8.58338C5.52023 8.58338 5.42752 8.60182 5.34103 8.63765C5.25454 8.67348 5.17595 8.72599 5.10975 8.79219C4.97606 8.92588 4.90095 9.10721 4.90095 9.29628C4.90095 9.48535 4.97606 9.66668 5.10975 9.80037L7.461 12.1516C7.52701 12.2182 7.60554 12.271 7.69206 12.307C7.77857 12.343 7.87137 12.3616 7.96509 12.3616C8.05882 12.3616 8.15161 12.343 8.23813 12.307C8.32465 12.271 8.40318 12.2182 8.46919 12.1516L13.3379 7.28169C13.405 7.21576 13.4584 7.13721 13.495 7.05056C13.5315 6.96391 13.5506 6.87087 13.551 6.77682C13.5515 6.68276 13.5333 6.58956 13.4975 6.50257C13.4617 6.41558 13.4091 6.33653 13.3426 6.26999C13.2762 6.20344 13.1972 6.15071 13.1102 6.11485C13.0233 6.07898 12.9301 6.06068 12.8361 6.06101C12.742 6.06134 12.6489 6.08028 12.5623 6.11675C12.4756 6.15322 12.3969 6.20649 12.3309 6.2735L7.9645 10.6399Z" fill="#27AE60"/>
</svg>
