<svg width="20" height="24" viewBox="0 0 20 24" fill="none" xmlns="http://www.w3.org/2000/svg">
<path d="M10 17C9.60849 17.0002 9.22554 16.8854 8.89864 16.67C8.57174 16.4545 8.31526 16.1479 8.161 15.788C7.83834 15.7118 7.52073 15.6156 7.21 15.5L7.193 15.494C6.28058 15.1516 5.43842 14.6452 4.708 14C3.72939 13.1367 2.97682 12.0472 2.51591 10.8263C2.055 9.60545 1.89974 8.29037 2.06368 6.99574C2.22761 5.70111 2.70576 4.46624 3.45644 3.39879C4.20711 2.33135 5.20751 1.46375 6.37042 0.871641C7.53332 0.279531 8.82342 -0.0191109 10.1282 0.00175537C11.433 0.0226216 12.7129 0.362362 13.8563 0.991354C14.9997 1.62035 15.9718 2.51949 16.688 3.61039C17.4041 4.70129 17.8425 5.95082 17.965 7.25003C18.004 7.66303 17.665 8.00003 17.25 8.00003C16.836 8.00003 16.505 7.66303 16.457 7.25103C16.3248 6.11432 15.8948 5.03266 15.2106 4.11539C14.5263 3.19812 13.6121 2.47775 12.5602 2.02711C11.5082 1.57647 10.356 1.41153 9.21992 1.54896C8.08383 1.68639 7.00416 2.12132 6.09005 2.80978C5.17594 3.49825 4.45979 4.41584 4.01399 5.46981C3.5682 6.52378 3.40856 7.67676 3.55122 8.81221C3.69388 9.94765 4.13377 11.0253 4.82644 11.9362C5.51911 12.8472 6.43999 13.5591 7.496 14L7.536 14.017C7.736 14.099 7.94133 14.1714 8.152 14.234C8.34464 13.7647 8.70847 13.386 9.1698 13.1749C9.63113 12.9637 10.1555 12.9357 10.6366 13.0967C11.1178 13.2576 11.5198 13.5954 11.7613 14.0417C12.0027 14.4879 12.0655 15.0092 11.937 15.5C11.8261 15.9294 11.5757 16.3098 11.2251 16.5813C10.8744 16.8529 10.4435 17.0001 10 17ZM3 15.5H4.169C3.60991 15.0643 3.10081 14.5679 2.651 14.02C1.92071 14.1056 1.24727 14.4563 0.758561 15.0057C0.269851 15.555 -9.04939e-05 16.2647 2.27566e-08 17V17.715C2.27566e-08 21.433 4.21 24 10 24C15.79 24 20 21.292 20 17.715V17C20 16.2044 19.6839 15.4413 19.1213 14.8787C18.5587 14.3161 17.7956 14 17 14H13.355C13.4999 14.4862 13.5375 14.998 13.465 15.5H17L17.145 15.507C17.516 15.5431 17.8603 15.7159 18.1108 15.9919C18.3612 16.2679 18.5 16.6273 18.5 17V17.715L18.495 17.876C18.355 20.396 14.926 22.5 10 22.5C4.889 22.5 1.5 20.389 1.5 17.715V17L1.507 16.855C1.54303 16.484 1.71589 16.1398 1.99189 15.8893C2.2679 15.6388 2.62727 15.5 3 15.5ZM15 8.00003C15.0002 8.90581 14.7543 9.79462 14.2886 10.5715C13.8229 11.3484 13.1549 11.9842 12.356 12.411C11.7114 11.8247 10.8714 11.4998 10 11.5C10.4596 11.5 10.9148 11.4095 11.3394 11.2336C11.764 11.0577 12.1499 10.7999 12.4749 10.4749C12.7999 10.1499 13.0577 9.76406 13.2336 9.33942C13.4095 8.91478 13.5 8.45966 13.5 8.00003C13.5 7.5404 13.4095 7.08528 13.2336 6.66064C13.0577 6.236 12.7999 5.85016 12.4749 5.52516C12.1499 5.20015 11.764 4.94234 11.3394 4.76645C10.9148 4.59056 10.4596 4.50003 10 4.50003C9.07174 4.50003 8.1815 4.86878 7.52513 5.52516C6.86875 6.18153 6.5 7.07177 6.5 8.00003C6.5 8.92829 6.86875 9.81853 7.52513 10.4749C8.1815 11.1313 9.07174 11.5 10 11.5C9.092 11.5 8.266 11.846 7.645 12.412C6.84649 11.9856 6.17874 11.3503 5.713 10.574C5.31646 9.91341 5.07797 9.17008 5.01613 8.40207C4.95429 7.63406 5.07078 6.86215 5.35651 6.14659C5.64224 5.43103 6.08947 4.79119 6.6633 4.27701C7.23713 3.76282 7.92203 3.38822 8.66454 3.18242C9.40704 2.97663 10.1871 2.94522 10.9437 3.09064C11.7004 3.23607 12.4132 3.55439 13.0265 4.02077C13.6398 4.48715 14.137 5.08896 14.4794 5.77922C14.8217 6.46949 14.9999 7.22953 15 8.00003Z" fill="black"/>
</svg>
