<svg width="120" height="120" viewBox="0 0 120 120" fill="none" xmlns="http://www.w3.org/2000/svg">
<rect x="1" y="1" width="118" height="118" rx="49" fill="white" stroke="#C0C0C0" stroke-width="2"/>
<path d="M40.7509 36.0369C39.4492 34.7351 37.3386 34.7351 36.0369 36.0369C34.7351 37.3386 34.7351 39.4492 36.0369 40.7509L55.286 60L36.0371 79.2489C34.7353 80.5507 34.7353 82.6612 36.0371 83.963C37.3388 85.2647 39.4494 85.2647 40.7511 83.963L60 64.7141L79.2489 83.963C80.5507 85.2647 82.6612 85.2647 83.963 83.963C85.2647 82.6612 85.2647 80.5507 83.963 79.2489L64.7141 60L83.9632 40.7509C85.2649 39.4492 85.2649 37.3386 83.9632 36.0369C82.6614 34.7351 80.5509 34.7351 79.2491 36.0369L60 55.286L40.7509 36.0369Z" fill="#EB5757"/>
</svg>
