<svg width="20" height="20" viewBox="0 0 20 20" fill="none" xmlns="http://www.w3.org/2000/svg">
<path d="M1.6665 6.66659C1.6665 6.20635 2.0396 5.83325 2.49984 5.83325H17.4998C17.9601 5.83325 18.3332 6.20635 18.3332 6.66659C18.3332 7.12682 17.9601 7.49992 17.4998 7.49992H2.49984C2.0396 7.49992 1.6665 7.12682 1.6665 6.66659Z" fill="black"/>
<path d="M1.6665 9.99992C1.6665 9.53968 2.0396 9.16659 2.49984 9.16659H17.4998C17.9601 9.16659 18.3332 9.53968 18.3332 9.99992C18.3332 10.4602 17.9601 10.8333 17.4998 10.8333H2.49984C2.0396 10.8333 1.6665 10.4602 1.6665 9.99992Z" fill="black"/>
<path d="M2.49984 12.4999C2.0396 12.4999 1.6665 12.873 1.6665 13.3333C1.6665 13.7935 2.0396 14.1666 2.49984 14.1666H12.4998C12.9601 14.1666 13.3332 13.7935 13.3332 13.3333C13.3332 12.873 12.9601 12.4999 12.4998 12.4999H2.49984Z" fill="black"/>
</svg>
