<svg width="150" height="150" viewBox="0 0 150 150" fill="none" xmlns="http://www.w3.org/2000/svg">
<g clip-path="url(#clip0_1016_12164)">
<path d="M75.0479 -0.476562C74.9208 -0.476562 74.7857 -0.476564 74.6586 -0.460674C73.8811 -0.411903 73.1351 -0.135612 72.5135 0.333821L52.5956 15.2544H15.4451V43.0934L1.96262 53.1993C0.995043 53.5721 0.211594 54.3085 -0.220394 55.2511C-0.652381 56.1938 -0.698664 57.268 -0.349352 58.2443C-0.41759 58.5493 -0.449588 58.8613 -0.444688 59.1739V146.306C-0.454723 146.507 -0.449412 146.709 -0.428799 146.91C-0.401468 147.171 -0.348241 147.429 -0.269901 147.68C-0.230642 147.801 -0.185567 147.921 -0.134836 148.038C-0.134846 148.043 -0.134846 148.048 -0.134836 148.054C-0.0847057 148.17 -0.0290282 148.284 0.0320069 148.395C0.0319963 148.401 0.0319963 148.406 0.0320069 148.411C0.35076 148.992 0.809584 149.483 1.36675 149.841C1.37205 149.841 1.37735 149.841 1.38264 149.841C1.48798 149.913 1.59668 149.979 1.70838 150.04C1.71368 150.04 1.71898 150.04 1.72427 150.04C2.077 150.219 2.45458 150.345 2.84451 150.413C2.8498 150.413 2.8551 150.413 2.8604 150.413C2.98404 150.435 3.10865 150.451 3.23381 150.461C3.2391 150.461 3.2444 150.461 3.2497 150.461C3.26029 150.461 3.27088 150.461 3.28148 150.461C3.36075 150.469 3.44023 150.474 3.51982 150.477C3.55954 150.477 3.59928 150.477 3.639 150.477H145.694C146.336 150.627 147.004 150.615 147.64 150.443C148.276 150.27 148.859 149.942 149.337 149.488C149.814 149.034 150.171 148.469 150.376 147.843C150.581 147.216 150.626 146.549 150.509 145.901V59.1739C150.517 58.6377 150.417 58.1052 150.215 57.6087C150.322 57.0347 150.302 56.4441 150.155 55.8789C150.008 55.3137 149.738 54.7878 149.365 54.3387C148.992 53.8896 148.524 53.5283 147.996 53.2806C147.467 53.0328 146.89 52.9047 146.306 52.9053C145.949 52.9027 145.594 52.9481 145.249 53.0404C148.664 47.5494 150.485 41.2173 150.509 34.7512C150.509 15.3497 134.73 -0.476562 115.376 -0.476562C105.437 -0.476562 96.4912 3.73424 90.0956 10.4159L77.2645 0.317928C76.6207 -0.166347 75.8449 -0.443431 75.0399 -0.476562H75.0479ZM115.376 7.46835C122.797 7.46835 129.502 10.4477 134.404 15.2544H134.341C134.42 15.3338 134.539 15.3656 134.619 15.445C139.537 20.3709 142.564 27.1876 142.564 34.7512C142.564 42.2989 139.537 49.1315 134.619 54.0573C132.355 56.3137 129.614 58.0536 126.674 59.4043V59.4996C123.133 61.1421 119.279 61.9986 115.376 62.0102C111.8 62.0123 108.259 61.308 104.955 59.9378C101.652 58.5676 98.6521 56.5584 96.1274 54.0256C93.6027 51.4928 91.6032 48.4863 90.2436 45.1786C88.884 41.871 88.1911 38.3274 88.2047 34.7512C88.19 31.1736 88.882 27.6284 90.241 24.3189C91.5999 21.0094 93.599 18.0009 96.1236 15.466C98.6482 12.9311 101.649 10.9197 104.952 9.54726C108.256 8.17481 111.799 7.46832 115.376 7.46835ZM74.9049 8.46147L83.9859 15.2544H65.8477L74.9049 8.46147ZM127.421 22.7544C127.285 22.758 127.15 22.7687 127.016 22.7862C126.885 22.8061 126.755 22.8326 126.626 22.8656C126.5 22.8939 126.376 22.9284 126.253 22.9689C126.126 23.0103 126.001 23.058 125.879 23.1119C125.823 23.1397 125.768 23.1688 125.713 23.1993C125.329 23.3958 124.98 23.6534 124.68 23.962L111.571 37.1347L106.009 31.7877C105.628 31.4138 105.176 31.1204 104.679 30.9252C104.182 30.73 103.651 30.637 103.117 30.6516C102.542 30.6621 101.975 30.7977 101.457 31.0489C101.376 31.0885 101.296 31.1309 101.218 31.176C101.104 31.2445 100.992 31.3187 100.885 31.3984C100.775 31.4751 100.669 31.5573 100.567 31.6447C100.472 31.733 100.382 31.8258 100.297 31.9228C100.207 32.0166 100.123 32.1147 100.043 32.2168C99.9599 32.3266 99.883 32.4406 99.8122 32.5584C99.7458 32.6692 99.6848 32.7832 99.6295 32.9C99.5702 33.0217 99.5171 33.1463 99.4706 33.2734C99.4274 33.396 99.3903 33.5206 99.3593 33.6469C99.3264 33.7752 99.2999 33.9051 99.2799 34.0361C99.26 34.1678 99.2467 34.3004 99.2402 34.4334C99.2335 34.5657 99.2335 34.6983 99.2402 34.8306C99.2494 34.9638 99.2653 35.0964 99.2878 35.2279C99.3078 35.3589 99.3343 35.4888 99.3673 35.6172C99.3956 35.7433 99.4301 35.8679 99.4706 35.9906C99.5223 36.118 99.5807 36.2426 99.6453 36.364C99.7007 36.4808 99.7617 36.5948 99.8281 36.7056C99.8944 36.815 99.966 36.921 100.043 37.0234C100.127 37.134 100.217 37.2401 100.313 37.3412C100.372 37.4041 100.433 37.4651 100.495 37.524L102.561 39.4943L108.162 44.8651C108.48 45.3852 108.913 45.8252 109.428 46.1512C109.943 46.4771 110.526 46.6802 111.132 46.7447C111.738 46.8093 112.351 46.7335 112.923 46.5233C113.495 46.313 114.011 45.974 114.431 45.5324L126.666 33.2258L130.321 29.5711C130.413 29.4749 130.501 29.3742 130.583 29.2692C130.67 29.1701 130.752 29.0667 130.829 28.9593C130.904 28.849 130.973 28.735 131.036 28.6177C131.097 28.5014 131.153 28.3821 131.203 28.2602C131.256 28.1382 131.304 28.0136 131.346 27.8868C131.384 27.7587 131.416 27.6288 131.441 27.4975C131.466 27.3713 131.484 27.2441 131.497 27.1161C131.509 26.9814 131.514 26.8462 131.512 26.7109C131.513 26.581 131.508 26.4511 131.497 26.3216C131.485 26.1884 131.466 26.0558 131.441 25.9244C131.411 25.7901 131.374 25.6575 131.33 25.5271C131.293 25.4033 131.251 25.2814 131.203 25.1617C131.148 25.0395 131.087 24.9202 131.02 24.8042C130.956 24.6923 130.887 24.5836 130.813 24.4784C130.739 24.3659 130.66 24.2571 130.575 24.1527C130.49 24.0529 130.4 23.9575 130.305 23.8667C130.211 23.7745 130.113 23.687 130.011 23.6045C129.906 23.5223 129.797 23.4454 129.685 23.3741C129.569 23.3018 129.45 23.2355 129.328 23.1755C129.211 23.1166 129.092 23.0636 128.97 23.0166C128.848 22.968 128.723 22.9256 128.597 22.8894C128.468 22.8538 128.338 22.8246 128.207 22.802C128.076 22.7795 127.943 22.7636 127.81 22.7544C127.678 22.7477 127.553 22.7477 127.421 22.7544ZM23.3901 23.1993H82.3572C81.4814 25.7432 80.9029 28.3799 80.6332 31.0568H47.2248V39.4943H80.7444C81.1099 42.1638 81.7057 44.7459 82.6353 47.1929H39.2799V55.6384H87.2672C89.3805 58.4747 91.8911 60.9853 94.7354 63.0828H55.1697V71.5282H94.8943V63.2258C100.835 67.585 108.008 69.9417 115.376 69.9551C116.401 69.9551 117.363 69.7485 118.356 69.6611L74.8969 96.801L23.3901 64.7035V23.1993ZM15.4451 53.0245V59.7618L10.5431 56.703L15.4451 53.0245ZM142.564 63.8931V139.147L101.115 111.451C100.455 110.991 99.6713 110.742 98.8668 110.736V110.752C98.0074 110.748 97.1697 111.022 96.4794 111.534C95.789 112.045 95.2833 112.767 95.038 113.591C94.7927 114.414 94.8211 115.295 95.1189 116.101C95.4168 116.908 95.968 117.595 96.6898 118.062L133.348 142.532H16.6369L53.3424 118.062C54.0733 117.591 54.6295 116.893 54.9256 116.075C55.2218 115.258 55.2414 114.365 54.9817 113.536C54.7219 112.706 54.197 111.984 53.4876 111.481C52.7781 110.979 51.9233 110.722 51.0543 110.752C50.2948 110.778 49.5586 111.02 48.933 111.451L7.50023 139.084V64.1553L15.4451 69.105L72.7995 104.857L73.0617 105.024H73.1093C73.1146 105.029 73.1199 105.035 73.1252 105.04C73.1305 105.04 73.1358 105.04 73.1411 105.04C73.1753 105.056 73.2097 105.072 73.2444 105.088C73.4396 105.175 73.6415 105.247 73.8482 105.302C73.927 105.326 74.0065 105.347 74.0866 105.366C74.1393 105.377 74.1923 105.388 74.2455 105.397C74.2534 105.397 74.2614 105.397 74.2693 105.397C74.3877 105.419 74.507 105.435 74.6268 105.445C74.6427 105.445 74.6586 105.445 74.6745 105.445C75.0016 105.464 75.3298 105.443 75.6517 105.381C75.7049 105.372 75.7579 105.361 75.8106 105.35C76.0704 105.288 76.3232 105.2 76.5654 105.088C76.6081 105.067 76.6505 105.046 76.6925 105.024H76.7402L76.9547 104.889C76.9706 104.878 76.9865 104.868 77.0023 104.857L134.619 68.8667L142.564 63.8931Z" fill="#A5A5A5"/>
</g>
<defs>
<clipPath id="clip0_1016_12164">
<rect width="150" height="150" fill="white"/>
</clipPath>
</defs>
</svg>
