<svg width="15" height="13" viewBox="0 0 15 13" fill="none" xmlns="http://www.w3.org/2000/svg">
<path fill-rule="evenodd" clip-rule="evenodd" d="M0.784621 10.4582L6.3722 1.13002C6.48986 0.936191 6.65548 0.775949 6.85307 0.664743C7.05067 0.553537 7.27359 0.495117 7.50033 0.495117C7.72707 0.495117 7.94999 0.553537 8.14759 0.664743C8.34518 0.775949 8.5108 0.936191 8.62846 1.13002L14.216 10.4582C14.3312 10.6578 14.3921 10.8839 14.3927 11.1143C14.3933 11.3447 14.3336 11.5712 14.2195 11.7713C14.1054 11.9714 13.9409 12.1382 13.7424 12.2551C13.5439 12.3719 13.3183 12.4348 13.0879 12.4374H1.91275C1.68231 12.435 1.45651 12.3723 1.25786 12.2555C1.0592 12.1387 0.894613 11.9719 0.780494 11.7717C0.666374 11.5715 0.606704 11.3448 0.607428 11.1144C0.608153 10.884 0.669245 10.6577 0.784621 10.4582ZM7.50033 4.12489C7.71029 4.12489 7.91166 4.2083 8.06012 4.35676C8.20859 4.50523 8.292 4.70659 8.292 4.91656V7.29156C8.292 7.50152 8.20859 7.70288 8.06012 7.85135C7.91166 7.99982 7.71029 8.08322 7.50033 8.08322C7.29037 8.08322 7.089 7.99982 6.94054 7.85135C6.79207 7.70288 6.70866 7.50152 6.70866 7.29156V4.91656C6.70866 4.70659 6.79207 4.50523 6.94054 4.35676C7.089 4.2083 7.29037 4.12489 7.50033 4.12489ZM6.70866 9.66656C6.70866 9.45659 6.79207 9.25523 6.94054 9.10676C7.089 8.9583 7.29037 8.87489 7.50033 8.87489H7.50666C7.71663 8.87489 7.91799 8.9583 8.06646 9.10676C8.21492 9.25523 8.29833 9.45659 8.29833 9.66656C8.29833 9.87652 8.21492 10.0779 8.06646 10.2264C7.91799 10.3748 7.71663 10.4582 7.50666 10.4582H7.50033C7.29037 10.4582 7.089 10.3748 6.94054 10.2264C6.79207 10.0779 6.70866 9.87652 6.70866 9.66656Z" fill="#EB5757"/>
</svg>
