<svg width="22" height="22" viewBox="0 0 22 22" fill="none" xmlns="http://www.w3.org/2000/svg">
<path d="M11 2.83329C12.6588 2.83353 14.2782 3.33892 15.6428 4.28221C17.0073 5.2255 18.0522 6.56195 18.6384 8.11372C19.2247 9.66549 19.3245 11.359 18.9246 12.9689C18.5246 14.5788 17.6439 16.0287 16.3997 17.1257C15.1554 18.2228 13.6065 18.9149 11.9592 19.11C10.3119 19.305 8.64424 18.9938 7.17815 18.2178C5.71205 17.4417 4.51705 16.2376 3.75215 14.7657C2.98726 13.2937 2.68874 11.6237 2.89633 9.97795C2.91927 9.82412 2.91122 9.66726 2.87265 9.51658C2.83408 9.36591 2.76577 9.22447 2.67175 9.10058C2.57772 8.97669 2.45987 8.87284 2.32512 8.79516C2.19038 8.71748 2.04146 8.66753 1.88713 8.64824C1.7328 8.62894 1.57617 8.64071 1.42645 8.68283C1.27673 8.72495 1.13694 8.79659 1.01531 8.89352C0.893682 8.99046 0.79266 9.11073 0.718189 9.24728C0.643718 9.38382 0.5973 9.53388 0.581667 9.68862C0.527222 10.1195 0.5 10.5566 0.5 11C0.500178 13.3407 1.28253 15.6144 2.72278 17.4596C4.16303 19.3049 6.17857 20.616 8.44924 21.1846C10.7199 21.7533 13.1155 21.5469 15.2554 20.5982C17.3954 19.6495 19.1569 18.013 20.2603 15.9486C21.3637 13.8841 21.7456 11.5102 21.3454 9.20387C20.9452 6.89755 19.7857 4.7911 18.0513 3.21913C16.3169 1.64716 14.1069 0.699824 11.7725 0.52761C9.43804 0.355397 7.11299 0.968182 5.16667 2.26862V1.66662C5.16667 1.3572 5.04375 1.06046 4.82496 0.841664C4.60616 0.622871 4.30942 0.499955 4 0.499955C3.69058 0.499955 3.39383 0.622871 3.17504 0.841664C2.95625 1.06046 2.83333 1.3572 2.83333 1.66662V5.16662C2.83333 5.47604 2.95625 5.77279 3.17504 5.99158C3.39383 6.21037 3.69058 6.33329 4 6.33329H7.5C7.80942 6.33329 8.10616 6.21037 8.32496 5.99158C8.54375 5.77279 8.66667 5.47604 8.66667 5.16662C8.66667 4.8572 8.54375 4.56046 8.32496 4.34166C8.10616 4.12287 7.80942 3.99996 7.5 3.99996H6.79067C8.06112 3.23444 9.51675 2.831 11 2.83329ZM12.1667 6.33329C12.1667 6.02387 12.0437 5.72712 11.825 5.50833C11.6062 5.28954 11.3094 5.16662 11 5.16662C10.6906 5.16662 10.3938 5.28954 10.175 5.50833C9.95625 5.72712 9.83333 6.02387 9.83333 6.33329V11C9.83333 11.3094 9.95625 11.6061 10.175 11.8249C10.3938 12.0437 10.6906 12.1666 11 12.1666H13.9167C14.2261 12.1666 14.5228 12.0437 14.7416 11.8249C14.9604 11.6061 15.0833 11.3094 15.0833 11C15.0833 10.6905 14.9604 10.3938 14.7416 10.175C14.5228 9.95621 14.2261 9.83329 13.9167 9.83329H12.1667V6.33329Z" fill="black"/>
</svg>
