<svg width="17" height="16" viewBox="0 0 17 16" fill="none" xmlns="http://www.w3.org/2000/svg">
<path d="M8.49967 15.8319C4.1273 15.8319 0.583008 12.2876 0.583008 7.9152C0.583008 3.54283 4.1273 -0.00146484 8.49967 -0.00146484C12.872 -0.00146484 16.4163 3.54362 16.4163 7.9152C16.4163 12.2868 12.872 15.8319 8.49967 15.8319ZM8.49967 3.95687C8.28971 3.95687 8.08835 4.04028 7.93988 4.18874C7.79142 4.33721 7.70801 4.53857 7.70801 4.74854V8.70687C7.70801 8.91683 7.79142 9.1182 7.93988 9.26666C8.08835 9.41513 8.28971 9.49854 8.49967 9.49854C8.70964 9.49854 8.911 9.41513 9.05947 9.26666C9.20793 9.1182 9.29134 8.91683 9.29134 8.70687V4.74854C9.29134 4.53857 9.20793 4.33721 9.05947 4.18874C8.911 4.04028 8.70964 3.95687 8.49967 3.95687ZM8.49967 11.8735C8.70964 11.8735 8.911 11.7901 9.05947 11.6417C9.20793 11.4932 9.29134 11.2918 9.29134 11.0819C9.29134 10.8719 9.20793 10.6705 9.05947 10.5221C8.911 10.3736 8.70964 10.2902 8.49967 10.2902C8.28971 10.2902 8.08835 10.3736 7.93988 10.5221C7.79142 10.6705 7.70801 10.8719 7.70801 11.0819C7.70801 11.2918 7.79142 11.4932 7.93988 11.6417C8.08835 11.7901 8.28971 11.8735 8.49967 11.8735Z" fill="#F2994A"/>
</svg>
