<svg width="20" height="26" viewBox="0 0 20 26" fill="none" xmlns="http://www.w3.org/2000/svg">
<path fill-rule="evenodd" clip-rule="evenodd" d="M12.3332 2.49996V2.83815C15.7066 3.84213 18.1665 6.9671 18.1665 10.6666V18.8333H19.3332V21.1666H0.666504V18.8333H1.83317V10.6666C1.83317 6.9671 4.2931 3.84213 7.6665 2.83815V2.49996C7.6665 1.2113 8.71117 0.166626 9.99984 0.166626C11.2885 0.166626 12.3332 1.2113 12.3332 2.49996ZM4.1665 18.8333H15.8332V10.6666C15.8332 7.44497 13.2215 4.83329 9.99984 4.83329C6.77818 4.83329 4.1665 7.44497 4.1665 10.6666V18.8333ZM12.3332 23.5V22.3333H7.6665V23.5C7.6665 24.7886 8.71117 25.8333 9.99984 25.8333C11.2885 25.8333 12.3332 24.7886 12.3332 23.5Z" fill="black"/>
</svg>
