<svg width="16" height="15" viewBox="0 0 16 15" fill="none" xmlns="http://www.w3.org/2000/svg">
<path d="M5.99984 5.5H7.33317V9.5H5.99984V5.5Z" fill="white"/>
<path d="M9.99984 9.5H8.6665V5.5H9.99984V9.5Z" fill="white"/>
<path fill-rule="evenodd" clip-rule="evenodd" d="M15.3332 7.5C15.3332 11.5501 12.0499 14.8333 7.99984 14.8333C3.94975 14.8333 0.666504 11.5501 0.666504 7.5C0.666504 3.44992 3.94975 0.166672 7.99984 0.166672C12.0499 0.166672 15.3332 3.44992 15.3332 7.5ZM13.9998 7.5C13.9998 10.8137 11.3135 13.5 7.99984 13.5C4.68613 13.5 1.99984 10.8137 1.99984 7.5C1.99984 4.1863 4.68613 1.50001 7.99984 1.50001C11.3135 1.50001 13.9998 4.1863 13.9998 7.5Z" fill="white"/>
</svg>
