<svg width="16" height="17" viewBox="0 0 16 17" fill="none" xmlns="http://www.w3.org/2000/svg">
<path d="M8.00016 1.83325C4.31737 1.83325 1.3335 4.81712 1.3335 8.49992C1.3335 12.1827 4.31737 15.1666 8.00016 15.1666C11.683 15.1666 14.6668 12.1827 14.6668 8.49992C14.6668 4.81712 11.683 1.83325 8.00016 1.83325ZM11.8711 9.25261C11.8711 9.43003 11.726 9.57519 11.5486 9.57519H9.07543V12.0483C9.07543 12.2257 8.93027 12.3709 8.75285 12.3709H7.24747C7.07006 12.3709 6.92489 12.2257 6.92489 12.0483V9.57519H4.45178C4.27436 9.57519 4.1292 9.43003 4.1292 9.25261V7.74723C4.1292 7.56981 4.27436 7.42465 4.45178 7.42465H6.92489V4.95153C6.92489 4.77411 7.07006 4.62895 7.24747 4.62895H8.75285C8.93027 4.62895 9.07543 4.77411 9.07543 4.95153V7.42465H11.5486C11.726 7.42465 11.8711 7.56981 11.8711 7.74723V9.25261Z" fill="white"/>
</svg>
