<svg width="22" height="26" viewBox="0 0 22 26" fill="none" xmlns="http://www.w3.org/2000/svg">
<path d="M10.9998 16.5H11.0092M10.9998 7.16664V13M1.66651 12.1273C1.66651 21.0955 9.7375 24.2455 10.868 24.6433C10.9559 24.6744 11.0438 24.6744 11.1317 24.6433C12.2645 24.2583 20.3332 21.1876 20.3332 12.1285V4.0213C20.3334 3.91704 20.2987 3.8157 20.2347 3.73344C20.1706 3.65118 20.0808 3.59275 19.9797 3.56747L11.113 1.3473C11.0387 1.32873 10.961 1.32873 10.8867 1.3473L2.02001 3.56747C1.91885 3.59275 1.82908 3.65118 1.76501 3.73344C1.70094 3.8157 1.66626 3.91704 1.66651 4.0213V12.1273Z" stroke="black" stroke-width="1.5" stroke-miterlimit="10" stroke-linecap="round" stroke-linejoin="round"/>
</svg>
