<svg width="115" height="138" viewBox="0 0 115 138" fill="none" xmlns="http://www.w3.org/2000/svg">
<g clip-path="url(#clip0_1020_12259)">
<path d="M103.154 60.3457H10.8461C4.49992 60.3457 -0.692383 65.538 -0.692383 71.8842V126.692C-0.692383 133.038 4.49992 138.23 10.8461 138.23H103.154C109.5 138.23 114.692 133.038 114.692 126.692V71.8842C114.692 65.538 109.5 60.3457 103.154 60.3457ZM71.423 122.365C67.0961 125.25 62.1922 126.692 56.9999 126.692C55.2692 126.692 53.5384 126.403 51.8076 126.115C44.8845 124.673 39.1153 120.923 35.3653 115.153L44.8845 108.807C46.9038 111.98 50.3653 114.288 54.1153 114.865C57.8653 115.73 61.6153 114.865 65.0768 112.557C71.7115 108.23 73.4422 98.9996 69.1153 92.6534C67.0961 89.4803 63.6345 87.1726 59.8845 86.5957C56.1345 85.7303 52.3845 86.5957 48.923 88.9034C48.0576 89.4803 47.4807 90.0572 46.9038 90.6342L56.9999 100.73H31.0384V74.7688L38.5384 82.2688C39.6922 81.1149 41.1345 79.9611 42.2884 79.0957C48.0576 75.3457 54.9807 73.9034 61.9038 75.0572C68.8269 76.4996 74.5961 80.2495 78.3461 86.0188C86.423 98.1342 83.2499 114.288 71.423 122.365Z" fill="#A5A5A5"/>
<path d="M13.7308 48.8074H25.2693C27 48.8074 28.1539 47.942 28.1539 46.2112V45.9227C28.1539 29.4804 42.2885 15.9227 59.0193 17.0766C74.3077 18.2304 85.8462 31.4997 85.8462 47.0766V46.2112C85.8462 47.942 87 48.8074 88.7308 48.8074H100.269C102 48.8074 103.154 47.942 103.154 46.2112V45.9227C103.154 19.6727 81.2308 -1.38496 54.6923 -0.231109C30.1731 0.922737 11.4231 21.692 10.8462 46.2112C11.1347 47.6535 12.2885 48.8074 13.7308 48.8074Z" fill="#A5A5A5"/>
</g>
<defs>
<clipPath id="clip0_1020_12259">
<rect width="115" height="138" fill="white"/>
</clipPath>
</defs>
</svg>
