<svg width="28" height="28" viewBox="0 0 28 28" fill="none" xmlns="http://www.w3.org/2000/svg">
<path d="M14.2567 2.33331H13.7433C13.1245 2.33331 12.531 2.57915 12.0934 3.01673C11.6558 3.45432 11.41 4.04781 11.41 4.66665V4.87665C11.4096 5.28583 11.3016 5.6877 11.0968 6.04196C10.892 6.39621 10.5977 6.69039 10.2433 6.89498L9.74167 7.18665C9.38696 7.39144 8.98459 7.49925 8.575 7.49925C8.16542 7.49925 7.76305 7.39144 7.40834 7.18665L7.23334 7.09331C6.69791 6.78445 6.06181 6.70066 5.46467 6.86034C4.86753 7.02001 4.35815 7.4101 4.04834 7.94498L3.79167 8.38831C3.48281 8.92374 3.39902 9.55984 3.55869 10.157C3.71837 10.7541 4.10846 11.2635 4.64334 11.5733L4.81834 11.69C5.17099 11.8936 5.46422 12.1859 5.66889 12.5379C5.87356 12.89 5.98254 13.2894 5.985 13.6966V14.2916C5.98663 14.7028 5.87959 15.1071 5.67472 15.4636C5.46985 15.8201 5.17441 16.1161 4.81834 16.3216L4.64334 16.4266C4.10846 16.7365 3.71837 17.2458 3.55869 17.843C3.39902 18.4401 3.48281 19.0762 3.79167 19.6116L4.04834 20.055C4.35815 20.5899 4.86753 20.9799 5.46467 21.1396C6.06181 21.2993 6.69791 21.2155 7.23334 20.9066L7.40834 20.8133C7.76305 20.6085 8.16542 20.5007 8.575 20.5007C8.98459 20.5007 9.38696 20.6085 9.74167 20.8133L10.2433 21.105C10.5977 21.3096 10.892 21.6037 11.0968 21.958C11.3016 22.3123 11.4096 22.7141 11.41 23.1233V23.3333C11.41 23.9522 11.6558 24.5456 12.0934 24.9832C12.531 25.4208 13.1245 25.6666 13.7433 25.6666H14.2567C14.8755 25.6666 15.469 25.4208 15.9066 24.9832C16.3442 24.5456 16.59 23.9522 16.59 23.3333V23.1233C16.5904 22.7141 16.6984 22.3123 16.9032 21.958C17.108 21.6037 17.4023 21.3096 17.7567 21.105L18.2583 20.8133C18.613 20.6085 19.0154 20.5007 19.425 20.5007C19.8346 20.5007 20.237 20.6085 20.5917 20.8133L20.7667 20.9066C21.3021 21.2155 21.9382 21.2993 22.5353 21.1396C23.1325 20.9799 23.6419 20.5899 23.9517 20.055L24.2083 19.6C24.5172 19.0646 24.601 18.4285 24.4413 17.8313C24.2816 17.2342 23.8915 16.7248 23.3567 16.415L23.1817 16.3216C22.8256 16.1161 22.5302 15.8201 22.3253 15.4636C22.1204 15.1071 22.0134 14.7028 22.015 14.2916V13.7083C22.0134 13.2972 22.1204 12.8929 22.3253 12.5364C22.5302 12.1799 22.8256 11.8839 23.1817 11.6783L23.3567 11.5733C23.8915 11.2635 24.2816 10.7541 24.4413 10.157C24.601 9.55984 24.5172 8.92374 24.2083 8.38831L23.9517 7.94498C23.6419 7.4101 23.1325 7.02001 22.5353 6.86034C21.9382 6.70066 21.3021 6.78445 20.7667 7.09331L20.5917 7.18665C20.237 7.39144 19.8346 7.49925 19.425 7.49925C19.0154 7.49925 18.613 7.39144 18.2583 7.18665L17.7567 6.89498C17.4023 6.69039 17.108 6.39621 16.9032 6.04196C16.6984 5.6877 16.5904 5.28583 16.59 4.87665V4.66665C16.59 4.04781 16.3442 3.45432 15.9066 3.01673C15.469 2.57915 14.8755 2.33331 14.2567 2.33331Z" stroke="black" stroke-width="2" stroke-linecap="round" stroke-linejoin="round"/>
<path d="M14 17.5C15.933 17.5 17.5 15.933 17.5 14C17.5 12.067 15.933 10.5 14 10.5C12.067 10.5 10.5 12.067 10.5 14C10.5 15.933 12.067 17.5 14 17.5Z" stroke="black" stroke-width="2" stroke-linecap="round" stroke-linejoin="round"/>
</svg>
