<svg width="19" height="19" viewBox="0 0 19 19" fill="none" xmlns="http://www.w3.org/2000/svg">
<path d="M9.49984 15.0417C7.96957 15.0417 6.58416 14.4215 5.58132 13.4187L9.49988 9.5001L9.49984 3.95842C12.5604 3.95842 15.0415 6.4395 15.0415 9.50008C15.0415 12.5607 12.5604 15.0417 9.49984 15.0417Z" fill="black"/>
<path fill-rule="evenodd" clip-rule="evenodd" d="M18.2082 9.50008C18.2082 14.3096 14.3093 18.2084 9.49984 18.2084C4.69036 18.2084 0.791504 14.3096 0.791504 9.50008C0.791504 4.6906 4.69036 0.791748 9.49984 0.791748C14.3093 0.791748 18.2082 4.6906 18.2082 9.50008ZM16.6248 9.50008C16.6248 13.4351 13.4349 16.6251 9.49984 16.6251C5.56481 16.6251 2.37484 13.4351 2.37484 9.50008C2.37484 5.56505 5.56481 2.37508 9.49984 2.37508C13.4349 2.37508 16.6248 5.56505 16.6248 9.50008Z" fill="black"/>
</svg>
