<svg width="20" height="20" viewBox="0 0 20 20" fill="none" xmlns="http://www.w3.org/2000/svg">
<path d="M8.33317 5.83342H9.99984V10.0001H14.1665V11.6667H8.33317V5.83342Z" fill="black"/>
<path fill-rule="evenodd" clip-rule="evenodd" d="M18.3332 10.0001C18.3332 14.6025 14.6022 18.3334 9.99984 18.3334C5.39746 18.3334 1.6665 14.6025 1.6665 10.0001C1.6665 5.39771 5.39746 1.66675 9.99984 1.66675C14.6022 1.66675 18.3332 5.39771 18.3332 10.0001ZM16.6665 10.0001C16.6665 13.682 13.6817 16.6667 9.99984 16.6667C6.31794 16.6667 3.33317 13.682 3.33317 10.0001C3.33317 6.31818 6.31794 3.33341 9.99984 3.33341C13.6817 3.33341 16.6665 6.31818 16.6665 10.0001Z" fill="black"/>
</svg>
